# xmcd
#
# Track frame offsets:
#	150
#	19730
#	34775
#	50950
#	64912
#	90075
#	107150
#	128100
#	147387
#	158725
#
# Disc length: 2381 seconds
#
# Revision: 2
# Processed by: cddbd v1.5.2PL0 Copyright (c) Steve Scherf et al.
# Submitted via: audiograbber 1.83.01
#
DISCID=85094b0a
DTITLE=Emmylou Harris - Cimarron
DYEAR=1981
DGENRE=CountryRock
TTITLE0=Rose Of Cimarron
TTITLE1=Spanish Is A Loving Tongue [with Fayssoux Starling]
TTITLE2=If I Needed You [with Don Williams]
TTITLE3=Another Lonesome Morning
TTITLE4=The Last Cheater's Waltz
TTITLE5=Born To Run
TTITLE6=The Price You Pay
TTITLE7=Son Of A Rotten Gambler
TTITLE8=Tennessee Waltz
TTITLE9=Tennessee Rose
EXTD=
EXTT0=
EXTT1=
EXTT2=
EXTT3=
EXTT4=
EXTT5=
EXTT6=
EXTT7=
EXTT8=
EXTT9=
PLAYORDER=
